<?xml version="1.0" encoding="UTF-8" standalone="no"?>
<!DOCTYPE svg PUBLIC "-//W3C//DTD SVG 1.1//EN"
 "http://www.w3.org/Graphics/SVG/1.1/DTD/svg11.dtd">
<!-- Generated by graphviz version 2.47.0 (20210316.0004)
 -->
<!-- Title: dependencies Pages: 1 -->
<svg width="504pt" height="284pt"
 viewBox="0.00 0.00 504.00 284.00" xmlns="http://www.w3.org/2000/svg" xmlns:xlink="http://www.w3.org/1999/xlink">
<g id="graph0" class="graph" transform="scale(1 1) rotate(0) translate(4 280)">
<title>dependencies</title>
<polygon fill="white" stroke="transparent" points="-4,4 -4,-280 500,-280 500,4 -4,4"/>
<text text-anchor="start" x="227.01" y="-42.4" font-family="Times-12" font-weight="bold" font-size="14.00">Legend</text>
<polygon fill="#ffffb3" stroke="transparent" points="14,-10 14,-30 34,-30 34,-10 14,-10"/>
<text text-anchor="start" x="37.63" y="-15.4" font-family="Times-12" font-size="14.00"> &#160;Declarations</text>
<polygon fill="#8dd3c7" stroke="transparent" points="127,-10 127,-30 147,-30 147,-10 127,-10"/>
<text text-anchor="start" x="150.73" y="-15.4" font-family="Times-12" font-size="14.00"> &#160;Module</text>
<polygon fill="#80b1d3" stroke="transparent" points="213,-10 213,-30 233,-30 233,-10 213,-10"/>
<text text-anchor="start" x="236.78" y="-15.4" font-family="Times-12" font-size="14.00"> &#160;Bootstrap</text>
<polygon fill="#fdb462" stroke="transparent" points="310,-10 310,-30 330,-30 330,-10 310,-10"/>
<text text-anchor="start" x="333.67" y="-15.4" font-family="Times-12" font-size="14.00"> &#160;Providers</text>
<polygon fill="#fb8072" stroke="transparent" points="406,-10 406,-30 426,-30 426,-10 406,-10"/>
<text text-anchor="start" x="429.73" y="-15.4" font-family="Times-12" font-size="14.00"> &#160;Exports</text>
<g id="clust1" class="cluster">
<title>cluster_SharedModule</title>
<polygon fill="none" stroke="black" stroke-dasharray="1,5" points="12,-70 12,-268 484,-268 484,-70 12,-70"/>
</g>
<g id="clust2" class="cluster">
<title>cluster_SharedModule_declarations</title>
<polygon fill="none" stroke="black" points="25,-78 25,-130 470,-130 470,-78 25,-78"/>
</g>
<g id="clust7" class="cluster">
<title>cluster_SharedModule_exports</title>
<polygon fill="none" stroke="black" points="20,-208 20,-260 476,-260 476,-208 20,-208"/>
</g>
<!-- CalculatorComponent -->
<g id="node1" class="node">
<title>CalculatorComponent</title>
<polygon fill="#ffffb3" stroke="black" points="461.65,-122 322.35,-122 322.35,-86 461.65,-86 461.65,-122"/>
<text text-anchor="middle" x="392" y="-99.8" font-family="Times,serif" font-size="14.00">CalculatorComponent</text>
</g>
<!-- SharedModule -->
<g id="node4" class="node">
<title>SharedModule</title>
<polygon fill="#8dd3c7" stroke="black" points="294.42,-187 291.42,-191 270.42,-191 267.42,-187 195.58,-187 195.58,-151 294.42,-151 294.42,-187"/>
<text text-anchor="middle" x="245" y="-164.8" font-family="Times,serif" font-size="14.00">SharedModule</text>
</g>
<!-- CalculatorComponent&#45;&gt;SharedModule -->
<g id="edge1" class="edge">
<title>CalculatorComponent&#45;&gt;SharedModule</title>
<path fill="none" stroke="black" d="M416.02,-122.02C416.02,-139.37 416.02,-163 416.02,-163 416.02,-163 304.47,-163 304.47,-163"/>
<polygon fill="black" stroke="black" points="304.47,-159.5 294.47,-163 304.47,-166.5 304.47,-159.5"/>
</g>
<!-- RatingComponent -->
<g id="node2" class="node">
<title>RatingComponent</title>
<polygon fill="#ffffb3" stroke="black" points="304.17,-122 185.83,-122 185.83,-86 304.17,-86 304.17,-122"/>
<text text-anchor="middle" x="245" y="-99.8" font-family="Times,serif" font-size="14.00">RatingComponent</text>
</g>
<!-- RatingComponent&#45;&gt;SharedModule -->
<g id="edge2" class="edge">
<title>RatingComponent&#45;&gt;SharedModule</title>
<path fill="none" stroke="black" d="M245,-122.11C245,-122.11 245,-140.99 245,-140.99"/>
<polygon fill="black" stroke="black" points="241.5,-140.99 245,-150.99 248.5,-140.99 241.5,-140.99"/>
</g>
<!-- WelcomeComponent -->
<g id="node3" class="node">
<title>WelcomeComponent</title>
<polygon fill="#ffffb3" stroke="black" points="167.47,-122 32.53,-122 32.53,-86 167.47,-86 167.47,-122"/>
<text text-anchor="middle" x="100" y="-99.8" font-family="Times,serif" font-size="14.00">WelcomeComponent</text>
</g>
<!-- WelcomeComponent&#45;&gt;SharedModule -->
<g id="edge3" class="edge">
<title>WelcomeComponent&#45;&gt;SharedModule</title>
<path fill="none" stroke="black" d="M121.66,-122.02C121.66,-139.37 121.66,-163 121.66,-163 121.66,-163 185.54,-163 185.54,-163"/>
<polygon fill="black" stroke="black" points="185.54,-166.5 195.54,-163 185.54,-159.5 185.54,-166.5"/>
</g>
<!-- CalculatorComponent  -->
<g id="node5" class="node">
<title>CalculatorComponent </title>
<polygon fill="#fb8072" stroke="black" points="467.65,-252 324.35,-252 324.35,-216 467.65,-216 467.65,-252"/>
<text text-anchor="middle" x="396" y="-229.8" font-family="Times,serif" font-size="14.00">CalculatorComponent </text>
</g>
<!-- SharedModule&#45;&gt;CalculatorComponent  -->
<g id="edge4" class="edge">
<title>SharedModule&#45;&gt;CalculatorComponent </title>
<path fill="none" stroke="black" stroke-dasharray="5,2" d="M294.49,-175C329.5,-175 370.23,-175 370.23,-175 370.23,-175 370.23,-205.98 370.23,-205.98"/>
<polygon fill="black" stroke="black" points="366.73,-205.98 370.23,-215.98 373.73,-205.98 366.73,-205.98"/>
</g>
<!-- RatingComponent  -->
<g id="node6" class="node">
<title>RatingComponent </title>
<polygon fill="#fb8072" stroke="black" points="306.16,-252 183.84,-252 183.84,-216 306.16,-216 306.16,-252"/>
<text text-anchor="middle" x="245" y="-229.8" font-family="Times,serif" font-size="14.00">RatingComponent </text>
</g>
<!-- SharedModule&#45;&gt;RatingComponent  -->
<g id="edge5" class="edge">
<title>SharedModule&#45;&gt;RatingComponent </title>
<path fill="none" stroke="black" stroke-dasharray="5,2" d="M245,-187.11C245,-187.11 245,-205.99 245,-205.99"/>
<polygon fill="black" stroke="black" points="241.5,-205.99 245,-215.99 248.5,-205.99 241.5,-205.99"/>
</g>
<!-- WelcomeComponent  -->
<g id="node7" class="node">
<title>WelcomeComponent </title>
<polygon fill="#fb8072" stroke="black" points="166.47,-252 27.53,-252 27.53,-216 166.47,-216 166.47,-252"/>
<text text-anchor="middle" x="97" y="-229.8" font-family="Times,serif" font-size="14.00">WelcomeComponent </text>
</g>
<!-- SharedModule&#45;&gt;WelcomeComponent  -->
<g id="edge6" class="edge">
<title>SharedModule&#45;&gt;WelcomeComponent </title>
<path fill="none" stroke="black" stroke-dasharray="5,2" d="M195.53,-175C146,-175 77.09,-175 77.09,-175 77.09,-175 77.09,-205.98 77.09,-205.98"/>
<polygon fill="black" stroke="black" points="73.59,-205.98 77.09,-215.98 80.59,-205.98 73.59,-205.98"/>
</g>
</g>
</svg>
