<?xml version="1.0" encoding="UTF-8" standalone="no"?>
<!DOCTYPE svg PUBLIC "-//W3C//DTD SVG 1.1//EN"
 "http://www.w3.org/Graphics/SVG/1.1/DTD/svg11.dtd">
<!-- Generated by graphviz version 2.47.0 (20210316.0004)
 -->
<!-- Title: dependencies Pages: 1 -->
<svg width="1011pt" height="284pt"
 viewBox="0.00 0.00 1011.00 284.00" xmlns="http://www.w3.org/2000/svg" xmlns:xlink="http://www.w3.org/1999/xlink">
<g id="graph0" class="graph" transform="scale(1 1) rotate(0) translate(4 280)">
<title>dependencies</title>
<polygon fill="white" stroke="transparent" points="-4,4 -4,-280 1007,-280 1007,4 -4,4"/>
<text text-anchor="start" x="480.51" y="-42.4" font-family="Times-12" font-weight="bold" font-size="14.00">Legend</text>
<polygon fill="#ffffb3" stroke="transparent" points="267.5,-10 267.5,-30 287.5,-30 287.5,-10 267.5,-10"/>
<text text-anchor="start" x="291.13" y="-15.4" font-family="Times-12" font-size="14.00"> &#160;Declarations</text>
<polygon fill="#8dd3c7" stroke="transparent" points="380.5,-10 380.5,-30 400.5,-30 400.5,-10 380.5,-10"/>
<text text-anchor="start" x="404.23" y="-15.4" font-family="Times-12" font-size="14.00"> &#160;Module</text>
<polygon fill="#80b1d3" stroke="transparent" points="466.5,-10 466.5,-30 486.5,-30 486.5,-10 466.5,-10"/>
<text text-anchor="start" x="490.28" y="-15.4" font-family="Times-12" font-size="14.00"> &#160;Bootstrap</text>
<polygon fill="#fdb462" stroke="transparent" points="563.5,-10 563.5,-30 583.5,-30 583.5,-10 563.5,-10"/>
<text text-anchor="start" x="587.17" y="-15.4" font-family="Times-12" font-size="14.00"> &#160;Providers</text>
<polygon fill="#fb8072" stroke="transparent" points="659.5,-10 659.5,-30 679.5,-30 679.5,-10 659.5,-10"/>
<text text-anchor="start" x="683.23" y="-15.4" font-family="Times-12" font-size="14.00"> &#160;Exports</text>
<g id="clust1" class="cluster">
<title>cluster_AppModule</title>
<polygon fill="none" stroke="black" stroke-dasharray="1,5" points="8,-70 8,-268 995,-268 995,-70 8,-70"/>
</g>
<g id="clust2" class="cluster">
<title>cluster_AppModule_declarations</title>
<polygon fill="none" stroke="black" points="285,-78 285,-130 987,-130 987,-78 285,-78"/>
</g>
<g id="clust8" class="cluster">
<title>cluster_AppModule_imports</title>
<polygon fill="none" stroke="black" points="16,-78 16,-130 277,-130 277,-78 16,-78"/>
</g>
<g id="clust10" class="cluster">
<title>cluster_AppModule_bootstrap</title>
<polygon fill="none" stroke="black" points="442,-208 442,-260 566,-260 566,-208 442,-208"/>
</g>
<!-- AppComponent -->
<g id="node1" class="node">
<title>AppComponent</title>
<polygon fill="#ffffb3" stroke="black" points="978.94,-122 873.06,-122 873.06,-86 978.94,-86 978.94,-122"/>
<text text-anchor="middle" x="926" y="-99.8" font-family="Times,serif" font-size="14.00">AppComponent</text>
</g>
<!-- AppModule -->
<g id="node6" class="node">
<title>AppModule</title>
<polygon fill="#8dd3c7" stroke="black" points="545.66,-187 542.66,-191 521.66,-191 518.66,-187 462.34,-187 462.34,-151 545.66,-151 545.66,-187"/>
<text text-anchor="middle" x="504" y="-164.8" font-family="Times,serif" font-size="14.00">AppModule</text>
</g>
<!-- AppComponent&#45;&gt;AppModule -->
<g id="edge1" class="edge">
<title>AppComponent&#45;&gt;AppModule</title>
<path fill="none" stroke="black" d="M926,-122.29C926,-144.21 926,-178 926,-178 926,-178 556.01,-178 556.01,-178"/>
<polygon fill="black" stroke="black" points="556.01,-174.5 546.01,-178 556.01,-181.5 556.01,-174.5"/>
</g>
<!-- BookDetailComponent -->
<g id="node2" class="node">
<title>BookDetailComponent</title>
<polygon fill="#ffffb3" stroke="black" points="854.88,-122 709.12,-122 709.12,-86 854.88,-86 854.88,-122"/>
<text text-anchor="middle" x="782" y="-99.8" font-family="Times,serif" font-size="14.00">BookDetailComponent</text>
</g>
<!-- BookDetailComponent&#45;&gt;AppModule -->
<g id="edge2" class="edge">
<title>BookDetailComponent&#45;&gt;AppModule</title>
<path fill="none" stroke="black" d="M782,-122.11C782,-141.34 782,-169 782,-169 782,-169 555.92,-169 555.92,-169"/>
<polygon fill="black" stroke="black" points="555.92,-165.5 545.92,-169 555.92,-172.5 555.92,-165.5"/>
</g>
<!-- BookFilterPipe -->
<g id="node3" class="node">
<title>BookFilterPipe</title>
<polygon fill="#ffffb3" stroke="black" points="690.55,-122 589.45,-122 589.45,-86 690.55,-86 690.55,-122"/>
<text text-anchor="middle" x="640" y="-99.8" font-family="Times,serif" font-size="14.00">BookFilterPipe</text>
</g>
<!-- BookFilterPipe&#45;&gt;AppModule -->
<g id="edge3" class="edge">
<title>BookFilterPipe&#45;&gt;AppModule</title>
<path fill="none" stroke="black" d="M640,-122.03C640,-138.4 640,-160 640,-160 640,-160 555.91,-160 555.91,-160"/>
<polygon fill="black" stroke="black" points="555.91,-156.5 545.91,-160 555.91,-163.5 555.91,-156.5"/>
</g>
<!-- BookListComponent -->
<g id="node4" class="node">
<title>BookListComponent</title>
<polygon fill="#ffffb3" stroke="black" points="570.95,-122 437.05,-122 437.05,-86 570.95,-86 570.95,-122"/>
<text text-anchor="middle" x="504" y="-99.8" font-family="Times,serif" font-size="14.00">BookListComponent</text>
</g>
<!-- BookListComponent&#45;&gt;AppModule -->
<g id="edge4" class="edge">
<title>BookListComponent&#45;&gt;AppModule</title>
<path fill="none" stroke="black" d="M504,-122.11C504,-122.11 504,-140.99 504,-140.99"/>
<polygon fill="black" stroke="black" points="500.5,-140.99 504,-150.99 507.5,-140.99 500.5,-140.99"/>
</g>
<!-- Test234Component -->
<g id="node5" class="node">
<title>Test234Component</title>
<polygon fill="#ffffb3" stroke="black" points="419.44,-122 292.56,-122 292.56,-86 419.44,-86 419.44,-122"/>
<text text-anchor="middle" x="356" y="-99.8" font-family="Times,serif" font-size="14.00">Test234Component</text>
</g>
<!-- Test234Component&#45;&gt;AppModule -->
<g id="edge5" class="edge">
<title>Test234Component&#45;&gt;AppModule</title>
<path fill="none" stroke="black" d="M356,-122.03C356,-138.4 356,-160 356,-160 356,-160 451.99,-160 451.99,-160"/>
<polygon fill="black" stroke="black" points="451.99,-163.5 461.99,-160 451.98,-156.5 451.99,-163.5"/>
</g>
<!-- AppComponent  -->
<g id="node9" class="node">
<title>AppComponent </title>
<polygon fill="#80b1d3" stroke="black" points="558.44,-252 449.56,-252 449.56,-216 558.44,-216 558.44,-252"/>
<text text-anchor="middle" x="504" y="-229.8" font-family="Times,serif" font-size="14.00">AppComponent </text>
</g>
<!-- AppModule&#45;&gt;AppComponent  -->
<g id="edge8" class="edge">
<title>AppModule&#45;&gt;AppComponent </title>
<path fill="none" stroke="black" stroke-dasharray="1,5" d="M504,-187.11C504,-187.11 504,-205.99 504,-205.99"/>
<polygon fill="black" stroke="black" points="500.5,-205.99 504,-215.99 507.5,-205.99 500.5,-205.99"/>
</g>
<!-- AppRoutingModule -->
<g id="node7" class="node">
<title>AppRoutingModule</title>
<polygon fill="#8dd3c7" stroke="black" points="269.27,-122 266.27,-126 245.27,-126 242.27,-122 140.73,-122 140.73,-86 269.27,-86 269.27,-122"/>
<text text-anchor="middle" x="205" y="-99.8" font-family="Times,serif" font-size="14.00">AppRoutingModule</text>
</g>
<!-- AppRoutingModule&#45;&gt;AppModule -->
<g id="edge6" class="edge">
<title>AppRoutingModule&#45;&gt;AppModule</title>
<path fill="none" stroke="black" d="M205,-122.11C205,-141.34 205,-169 205,-169 205,-169 452.11,-169 452.11,-169"/>
<polygon fill="black" stroke="black" points="452.11,-172.5 462.11,-169 452.11,-165.5 452.11,-172.5"/>
</g>
<!-- SharedModule -->
<g id="node8" class="node">
<title>SharedModule</title>
<polygon fill="#8dd3c7" stroke="black" points="122.42,-122 119.42,-126 98.42,-126 95.42,-122 23.58,-122 23.58,-86 122.42,-86 122.42,-122"/>
<text text-anchor="middle" x="73" y="-99.8" font-family="Times,serif" font-size="14.00">SharedModule</text>
</g>
<!-- SharedModule&#45;&gt;AppModule -->
<g id="edge7" class="edge">
<title>SharedModule&#45;&gt;AppModule</title>
<path fill="none" stroke="black" d="M73,-122.29C73,-144.21 73,-178 73,-178 73,-178 452.28,-178 452.28,-178"/>
<polygon fill="black" stroke="black" points="452.28,-181.5 462.28,-178 452.28,-174.5 452.28,-181.5"/>
</g>
</g>
</svg>
