<?xml version="1.0" encoding="UTF-8" standalone="no"?>
<!DOCTYPE svg PUBLIC "-//W3C//DTD SVG 1.1//EN"
 "http://www.w3.org/Graphics/SVG/1.1/DTD/svg11.dtd">
<!-- Generated by graphviz version 2.47.0 (20210316.0004)
 -->
<!-- Title: dependencies Pages: 1 -->
<svg width="2294pt" height="290pt"
 viewBox="0.00 0.00 2294.00 290.00" xmlns="http://www.w3.org/2000/svg" xmlns:xlink="http://www.w3.org/1999/xlink">
<g id="graph0" class="graph" transform="scale(1 1) rotate(0) translate(4 286)">
<title>dependencies</title>
<polygon fill="white" stroke="transparent" points="-4,4 -4,-286 2290,-286 2290,4 -4,4"/>
<text text-anchor="start" x="1122.01" y="-42.4" font-family="Times-12" font-weight="bold" font-size="14.00">Legend</text>
<polygon fill="#ffffb3" stroke="transparent" points="909,-10 909,-30 929,-30 929,-10 909,-10"/>
<text text-anchor="start" x="932.63" y="-15.4" font-family="Times-12" font-size="14.00"> &#160;Declarations</text>
<polygon fill="#8dd3c7" stroke="transparent" points="1022,-10 1022,-30 1042,-30 1042,-10 1022,-10"/>
<text text-anchor="start" x="1045.73" y="-15.4" font-family="Times-12" font-size="14.00"> &#160;Module</text>
<polygon fill="#80b1d3" stroke="transparent" points="1108,-10 1108,-30 1128,-30 1128,-10 1108,-10"/>
<text text-anchor="start" x="1131.78" y="-15.4" font-family="Times-12" font-size="14.00"> &#160;Bootstrap</text>
<polygon fill="#fdb462" stroke="transparent" points="1205,-10 1205,-30 1225,-30 1225,-10 1205,-10"/>
<text text-anchor="start" x="1228.67" y="-15.4" font-family="Times-12" font-size="14.00"> &#160;Providers</text>
<polygon fill="#fb8072" stroke="transparent" points="1301,-10 1301,-30 1321,-30 1321,-10 1301,-10"/>
<text text-anchor="start" x="1324.73" y="-15.4" font-family="Times-12" font-size="14.00"> &#160;Exports</text>
<g id="clust1" class="cluster">
<title>cluster_AppModule</title>
<polygon fill="none" stroke="black" stroke-dasharray="1,5" points="8,-70 8,-274 995,-274 995,-70 8,-70"/>
</g>
<g id="clust2" class="cluster">
<title>cluster_AppModule_declarations</title>
<polygon fill="none" stroke="black" points="16,-78 16,-130 718,-130 718,-78 16,-78"/>
</g>
<g id="clust8" class="cluster">
<title>cluster_AppModule_imports</title>
<polygon fill="none" stroke="black" points="726,-78 726,-130 987,-130 987,-78 726,-78"/>
</g>
<g id="clust10" class="cluster">
<title>cluster_AppModule_bootstrap</title>
<polygon fill="none" stroke="black" points="451,-214 451,-266 575,-266 575,-214 451,-214"/>
</g>
<g id="clust18" class="cluster">
<title>cluster_ModuleaModule</title>
<polygon fill="none" stroke="black" stroke-dasharray="1,5" points="1936,-70 1936,-198 2278,-198 2278,-70 1936,-70"/>
</g>
<g id="clust19" class="cluster">
<title>cluster_ModuleaModule_declarations</title>
<polygon fill="none" stroke="black" points="2122,-78 2122,-130 2270,-130 2270,-78 2122,-78"/>
</g>
<g id="clust21" class="cluster">
<title>cluster_ModuleaModule_imports</title>
<polygon fill="none" stroke="black" points="1944,-78 1944,-130 2114,-130 2114,-78 1944,-78"/>
</g>
<g id="clust31" class="cluster">
<title>cluster_SharedModule</title>
<polygon fill="none" stroke="black" stroke-dasharray="1,5" points="1003,-138 1003,-206 1928,-206 1928,-138 1003,-138"/>
</g>
<g id="clust32" class="cluster">
<title>cluster_SharedModule_declarations</title>
<polygon fill="none" stroke="black" points="1475,-146 1475,-198 1920,-198 1920,-146 1475,-146"/>
</g>
<g id="clust37" class="cluster">
<title>cluster_SharedModule_exports</title>
<polygon fill="none" stroke="black" points="1011,-146 1011,-198 1467,-198 1467,-146 1011,-146"/>
</g>
<!-- AppComponent -->
<g id="node1" class="node">
<title>AppComponent</title>
<polygon fill="#ffffb3" stroke="black" points="709.94,-122 604.06,-122 604.06,-86 709.94,-86 709.94,-122"/>
<text text-anchor="middle" x="657" y="-99.8" font-family="Times,serif" font-size="14.00">AppComponent</text>
</g>
<!-- AppModule -->
<g id="node6" class="node">
<title>AppModule</title>
<polygon fill="#8dd3c7" stroke="black" points="554.66,-190 551.66,-194 530.66,-194 527.66,-190 471.34,-190 471.34,-154 554.66,-154 554.66,-190"/>
<text text-anchor="middle" x="513" y="-167.8" font-family="Times,serif" font-size="14.00">AppModule</text>
</g>
<!-- AppComponent&#45;&gt;AppModule -->
<g id="edge1" class="edge">
<title>AppComponent&#45;&gt;AppModule</title>
<path fill="none" stroke="black" d="M657,-122.11C657,-141.34 657,-169 657,-169 657,-169 565.04,-169 565.04,-169"/>
<polygon fill="black" stroke="black" points="565.04,-165.5 555.04,-169 565.04,-172.5 565.04,-165.5"/>
</g>
<!-- BookDetailComponent -->
<g id="node2" class="node">
<title>BookDetailComponent</title>
<polygon fill="#ffffb3" stroke="black" points="585.88,-122 440.12,-122 440.12,-86 585.88,-86 585.88,-122"/>
<text text-anchor="middle" x="513" y="-99.8" font-family="Times,serif" font-size="14.00">BookDetailComponent</text>
</g>
<!-- BookDetailComponent&#45;&gt;AppModule -->
<g id="edge2" class="edge">
<title>BookDetailComponent&#45;&gt;AppModule</title>
<path fill="none" stroke="black" d="M513,-122.22C513,-122.22 513,-143.73 513,-143.73"/>
<polygon fill="black" stroke="black" points="509.5,-143.73 513,-153.73 516.5,-143.73 509.5,-143.73"/>
</g>
<!-- BookFilterPipe -->
<g id="node3" class="node">
<title>BookFilterPipe</title>
<polygon fill="#ffffb3" stroke="black" points="421.55,-122 320.45,-122 320.45,-86 421.55,-86 421.55,-122"/>
<text text-anchor="middle" x="371" y="-99.8" font-family="Times,serif" font-size="14.00">BookFilterPipe</text>
</g>
<!-- BookFilterPipe&#45;&gt;AppModule -->
<g id="edge3" class="edge">
<title>BookFilterPipe&#45;&gt;AppModule</title>
<path fill="none" stroke="black" d="M371,-122.02C371,-139.37 371,-163 371,-163 371,-163 461.16,-163 461.16,-163"/>
<polygon fill="black" stroke="black" points="461.16,-166.5 471.16,-163 461.16,-159.5 461.16,-166.5"/>
</g>
<!-- BookListComponent -->
<g id="node4" class="node">
<title>BookListComponent</title>
<polygon fill="#ffffb3" stroke="black" points="301.95,-122 168.05,-122 168.05,-86 301.95,-86 301.95,-122"/>
<text text-anchor="middle" x="235" y="-99.8" font-family="Times,serif" font-size="14.00">BookListComponent</text>
</g>
<!-- BookListComponent&#45;&gt;AppModule -->
<g id="edge4" class="edge">
<title>BookListComponent&#45;&gt;AppModule</title>
<path fill="none" stroke="black" d="M235,-122.22C235,-142.37 235,-172 235,-172 235,-172 461.08,-172 461.08,-172"/>
<polygon fill="black" stroke="black" points="461.08,-175.5 471.08,-172 461.08,-168.5 461.08,-175.5"/>
</g>
<!-- Test234Component -->
<g id="node5" class="node">
<title>Test234Component</title>
<polygon fill="#ffffb3" stroke="black" points="150.44,-122 23.56,-122 23.56,-86 150.44,-86 150.44,-122"/>
<text text-anchor="middle" x="87" y="-99.8" font-family="Times,serif" font-size="14.00">Test234Component</text>
</g>
<!-- Test234Component&#45;&gt;AppModule -->
<g id="edge5" class="edge">
<title>Test234Component&#45;&gt;AppModule</title>
<path fill="none" stroke="black" d="M87,-122.25C87,-145.02 87,-181 87,-181 87,-181 460.99,-181 460.99,-181"/>
<polygon fill="black" stroke="black" points="460.99,-184.5 470.99,-181 460.99,-177.5 460.99,-184.5"/>
</g>
<!-- AppComponent  -->
<g id="node9" class="node">
<title>AppComponent </title>
<polygon fill="#80b1d3" stroke="black" points="567.44,-258 458.56,-258 458.56,-222 567.44,-222 567.44,-258"/>
<text text-anchor="middle" x="513" y="-235.8" font-family="Times,serif" font-size="14.00">AppComponent </text>
</g>
<!-- AppModule&#45;&gt;AppComponent  -->
<g id="edge8" class="edge">
<title>AppModule&#45;&gt;AppComponent </title>
<path fill="none" stroke="black" stroke-dasharray="1,5" d="M513,-190.22C513,-190.22 513,-211.73 513,-211.73"/>
<polygon fill="black" stroke="black" points="509.5,-211.73 513,-221.73 516.5,-211.73 509.5,-211.73"/>
</g>
<!-- AppRoutingModule -->
<g id="node7" class="node">
<title>AppRoutingModule</title>
<polygon fill="#8dd3c7" stroke="black" points="862.27,-122 859.27,-126 838.27,-126 835.27,-122 733.73,-122 733.73,-86 862.27,-86 862.27,-122"/>
<text text-anchor="middle" x="798" y="-99.8" font-family="Times,serif" font-size="14.00">AppRoutingModule</text>
</g>
<!-- AppRoutingModule&#45;&gt;AppModule -->
<g id="edge6" class="edge">
<title>AppRoutingModule&#45;&gt;AppModule</title>
<path fill="none" stroke="black" d="M798,-122.17C798,-143.5 798,-176 798,-176 798,-176 564.75,-176 564.75,-176"/>
<polygon fill="black" stroke="black" points="564.75,-172.5 554.75,-176 564.75,-179.5 564.75,-172.5"/>
</g>
<!-- SharedModule -->
<g id="node8" class="node">
<title>SharedModule</title>
<polygon fill="#8dd3c7" stroke="black" points="979.42,-122 976.42,-126 955.42,-126 952.42,-122 880.58,-122 880.58,-86 979.42,-86 979.42,-122"/>
<text text-anchor="middle" x="930" y="-99.8" font-family="Times,serif" font-size="14.00">SharedModule</text>
</g>
<!-- SharedModule&#45;&gt;AppModule -->
<g id="edge7" class="edge">
<title>SharedModule&#45;&gt;AppModule</title>
<path fill="none" stroke="black" d="M913.6,-122.32C913.6,-145.66 913.6,-183 913.6,-183 913.6,-183 564.74,-183 564.74,-183"/>
<polygon fill="black" stroke="black" points="564.74,-179.5 554.74,-183 564.74,-186.5 564.74,-179.5"/>
</g>
<!-- CalculatorComponent  -->
<g id="node16" class="node">
<title>CalculatorComponent </title>
<polygon fill="#fb8072" stroke="black" points="1458.65,-190 1315.35,-190 1315.35,-154 1458.65,-154 1458.65,-190"/>
<text text-anchor="middle" x="1387" y="-167.8" font-family="Times,serif" font-size="14.00">CalculatorComponent </text>
</g>
<!-- SharedModule&#45;&gt;CalculatorComponent  -->
<g id="edge14" class="edge">
<title>SharedModule&#45;&gt;CalculatorComponent </title>
<path fill="none" stroke="black" stroke-dasharray="5,2" d="M979.34,-110C1097.51,-110 1387,-110 1387,-110 1387,-110 1387,-143.73 1387,-143.73"/>
<polygon fill="black" stroke="black" points="1383.5,-143.73 1387,-153.73 1390.5,-143.73 1383.5,-143.73"/>
</g>
<!-- RatingComponent  -->
<g id="node17" class="node">
<title>RatingComponent </title>
<polygon fill="#fb8072" stroke="black" points="1297.16,-190 1174.84,-190 1174.84,-154 1297.16,-154 1297.16,-190"/>
<text text-anchor="middle" x="1236" y="-167.8" font-family="Times,serif" font-size="14.00">RatingComponent </text>
</g>
<!-- SharedModule&#45;&gt;RatingComponent  -->
<g id="edge15" class="edge">
<title>SharedModule&#45;&gt;RatingComponent </title>
<path fill="none" stroke="black" stroke-dasharray="5,2" d="M979.5,-116C1066.11,-116 1236,-116 1236,-116 1236,-116 1236,-143.97 1236,-143.97"/>
<polygon fill="black" stroke="black" points="1232.5,-143.97 1236,-153.97 1239.5,-143.97 1232.5,-143.97"/>
</g>
<!-- WelcomeComponent  -->
<g id="node18" class="node">
<title>WelcomeComponent </title>
<polygon fill="#fb8072" stroke="black" points="1157.47,-190 1018.53,-190 1018.53,-154 1157.47,-154 1157.47,-190"/>
<text text-anchor="middle" x="1088" y="-167.8" font-family="Times,serif" font-size="14.00">WelcomeComponent </text>
</g>
<!-- SharedModule&#45;&gt;WelcomeComponent  -->
<g id="edge16" class="edge">
<title>SharedModule&#45;&gt;WelcomeComponent </title>
<path fill="none" stroke="black" stroke-dasharray="5,2" d="M946.4,-122.03C946.4,-139.06 946.4,-162 946.4,-162 946.4,-162 1008.45,-162 1008.45,-162"/>
<polygon fill="black" stroke="black" points="1008.45,-165.5 1018.45,-162 1008.45,-158.5 1008.45,-165.5"/>
</g>
<!-- ModuleaComponent -->
<g id="node10" class="node">
<title>ModuleaComponent</title>
<polygon fill="#ffffb3" stroke="black" points="2261.6,-122 2130.4,-122 2130.4,-86 2261.6,-86 2261.6,-122"/>
<text text-anchor="middle" x="2196" y="-99.8" font-family="Times,serif" font-size="14.00">ModuleaComponent</text>
</g>
<!-- ModuleaModule -->
<g id="node11" class="node">
<title>ModuleaModule</title>
<polygon fill="#8dd3c7" stroke="black" points="2166.81,-190 2163.81,-194 2142.81,-194 2139.81,-190 2057.19,-190 2057.19,-154 2166.81,-154 2166.81,-190"/>
<text text-anchor="middle" x="2112" y="-167.8" font-family="Times,serif" font-size="14.00">ModuleaModule</text>
</g>
<!-- ModuleaComponent&#45;&gt;ModuleaModule -->
<g id="edge9" class="edge">
<title>ModuleaComponent&#45;&gt;ModuleaModule</title>
<path fill="none" stroke="black" d="M2148.55,-122.22C2148.55,-122.22 2148.55,-143.73 2148.55,-143.73"/>
<polygon fill="black" stroke="black" points="2145.05,-143.73 2148.55,-153.73 2152.05,-143.73 2145.05,-143.73"/>
</g>
<!-- ModuleaRoutingModule -->
<g id="node12" class="node">
<title>ModuleaRoutingModule</title>
<polygon fill="#8dd3c7" stroke="black" points="2106.43,-122 2103.43,-126 2082.43,-126 2079.43,-122 1951.57,-122 1951.57,-86 2106.43,-86 2106.43,-122"/>
<text text-anchor="middle" x="2029" y="-99.8" font-family="Times,serif" font-size="14.00">ModuleaRoutingModule</text>
</g>
<!-- ModuleaRoutingModule&#45;&gt;ModuleaModule -->
<g id="edge10" class="edge">
<title>ModuleaRoutingModule&#45;&gt;ModuleaModule</title>
<path fill="none" stroke="black" d="M2081.78,-122.22C2081.78,-122.22 2081.78,-143.73 2081.78,-143.73"/>
<polygon fill="black" stroke="black" points="2078.28,-143.73 2081.78,-153.73 2085.28,-143.73 2078.28,-143.73"/>
</g>
<!-- CalculatorComponent -->
<g id="node13" class="node">
<title>CalculatorComponent</title>
<polygon fill="#ffffb3" stroke="black" points="1911.65,-190 1772.35,-190 1772.35,-154 1911.65,-154 1911.65,-190"/>
<text text-anchor="middle" x="1842" y="-167.8" font-family="Times,serif" font-size="14.00">CalculatorComponent</text>
</g>
<!-- CalculatorComponent&#45;&gt;SharedModule -->
<g id="edge11" class="edge">
<title>CalculatorComponent&#45;&gt;SharedModule</title>
<path fill="none" stroke="black" d="M1842,-153.85C1842,-130.24 1842,-92 1842,-92 1842,-92 989.36,-92 989.36,-92"/>
<polygon fill="black" stroke="black" points="989.36,-88.5 979.36,-92 989.36,-95.5 989.36,-88.5"/>
</g>
<!-- RatingComponent -->
<g id="node14" class="node">
<title>RatingComponent</title>
<polygon fill="#ffffb3" stroke="black" points="1754.17,-190 1635.83,-190 1635.83,-154 1754.17,-154 1754.17,-190"/>
<text text-anchor="middle" x="1695" y="-167.8" font-family="Times,serif" font-size="14.00">RatingComponent</text>
</g>
<!-- RatingComponent&#45;&gt;SharedModule -->
<g id="edge12" class="edge">
<title>RatingComponent&#45;&gt;SharedModule</title>
<path fill="none" stroke="black" d="M1695,-153.71C1695,-131.79 1695,-98 1695,-98 1695,-98 989.31,-98 989.31,-98"/>
<polygon fill="black" stroke="black" points="989.31,-94.5 979.31,-98 989.31,-101.5 989.31,-94.5"/>
</g>
<!-- WelcomeComponent -->
<g id="node15" class="node">
<title>WelcomeComponent</title>
<polygon fill="#ffffb3" stroke="black" points="1617.47,-190 1482.53,-190 1482.53,-154 1617.47,-154 1617.47,-190"/>
<text text-anchor="middle" x="1550" y="-167.8" font-family="Times,serif" font-size="14.00">WelcomeComponent</text>
</g>
<!-- WelcomeComponent&#45;&gt;SharedModule -->
<g id="edge13" class="edge">
<title>WelcomeComponent&#45;&gt;SharedModule</title>
<path fill="none" stroke="black" d="M1550,-153.78C1550,-133.63 1550,-104 1550,-104 1550,-104 989.43,-104 989.43,-104"/>
<polygon fill="black" stroke="black" points="989.43,-100.5 979.43,-104 989.43,-107.5 989.43,-100.5"/>
</g>
</g>
</svg>
